<svg width="50" height="50" viewBox="0 0 50 50" fill="none" xmlns="http://www.w3.org/2000/svg">
<g clip-path="url(#clip0_1_74)">
<path d="M18.4167 22.5729H14.3229V18.7H18.0375C21.95 18.7 21.4667 22.5729 18.4167 22.5729ZM30.4771 24.7771H35.9437C35.7042 21.2625 31.0271 21.0062 30.4771 24.7771ZM18.1854 25.6021H14.3229V29.6583H18.1229C21.8354 29.6562 21.6083 25.6021 18.1854 25.6021ZM50 25C50 38.8062 38.8062 50 25 50C11.1937 50 0 38.8062 0 25C0 11.1937 11.1937 0 25 0C38.8062 0 50 11.1937 50 25ZM22.1729 23.4729C25.6479 21.6958 25.5208 15.1792 18.8667 15.0812H10.4167V33.2687H18.2729C26.5187 33.2687 26.3792 25.0042 22.1729 23.4729ZM29.1667 16.8771H37.5V15.0542H29.1667V16.8771ZM39.4646 24.5708C38.3292 17.2687 26.8542 16.8396 26.8542 26.3875C26.8542 35.8167 37.6458 34.3417 39.2479 29.6375H35.3979C34.0542 31.1958 30.1729 30.7437 30.3896 27.1708H39.5771C39.5958 26.0146 39.5583 25.1854 39.4646 24.5708Z" fill="white"/>
</g>
<defs>
<clipPath id="clip0_1_74">
<rect width="50" height="50" fill="white"/>
</clipPath>
</defs>
</svg>
