<svg width="50" height="50" viewBox="0 0 50 50" fill="none" xmlns="http://www.w3.org/2000/svg">
<g clip-path="url(#clip0_1_76)">
<path d="M25 0C11.1937 0 0 11.1937 0 25C0 38.8062 11.1937 50 25 50C38.8062 50 50 38.8062 50 25C50 11.1937 38.8062 0 25 0ZM29.6208 38.7833C28.8833 38.9271 28.6458 38.4729 28.6458 38.0833V34.0812C28.6458 32.7208 28.1687 31.8333 27.6437 31.3812C30.8937 31.0208 34.3062 29.7875 34.3062 24.1854C34.3062 22.5917 33.7375 21.2917 32.8042 20.2708C32.9542 19.9021 33.4542 18.4187 32.6604 16.4104C32.6604 16.4104 31.4375 16.0187 28.6542 17.9042C27.4854 17.5833 26.2396 17.4229 25 17.4167C23.7604 17.4229 22.5146 17.5833 21.3479 17.9062C18.5625 16.0208 17.3375 16.4125 17.3375 16.4125C16.5479 18.4208 17.0458 19.9042 17.1979 20.2708C16.2646 21.2917 15.6937 22.5917 15.6937 24.1854C15.6937 29.7729 19.0979 31.0229 22.3375 31.3917C21.9208 31.7562 21.5437 32.3979 21.4125 33.3417C20.5792 33.7146 18.4688 34.3583 17.1687 32.1292C17.1687 32.1292 16.3979 30.7292 14.9333 30.625C14.9333 30.625 13.5104 30.6062 14.8333 31.5125C14.8333 31.5125 15.7917 31.9604 16.4521 33.6458C16.4521 33.6458 17.2958 36.25 21.3542 35.3667V38.0812C21.3542 38.4667 21.1187 38.9187 20.3917 38.7833C14.5958 36.8562 10.4167 31.3896 10.4167 24.9479C10.4167 16.8917 16.9479 10.3646 25 10.3646C33.0521 10.3646 39.5833 16.8917 39.5833 24.9479C39.5833 31.3875 35.4104 36.8542 29.6208 38.7833Z" fill="white"/>
</g>
<defs>
<clipPath id="clip0_1_76">
<rect width="50" height="50" fill="white"/>
</clipPath>
</defs>
</svg>
