<svg width="50" height="50" viewBox="0 0 50 50" fill="none" xmlns="http://www.w3.org/2000/svg">
<g clip-path="url(#clip0_1_88)">
<path fill-rule="evenodd" clip-rule="evenodd" d="M25 0C11.1958 0 0 11.1917 0 25C0 38.8062 11.1958 50 25 50C38.8062 50 50 38.8062 50 25C50 11.1917 38.8062 0 25 0ZM37.5021 35.2437C38.6521 35.2437 39.5833 34.3104 39.5833 33.1625V16.6646C39.5833 15.5167 38.65 14.5833 37.5021 14.5833H12.4979C11.35 14.5833 10.4167 15.5167 10.4167 16.6646V33.1625C10.4167 34.3104 11.35 35.2437 12.4979 35.2437H37.5021ZM25 27.8479L13.6458 19.9688L13.6229 34.0271H36.3292V19.9688L25 27.8479ZM35.7792 15.7979C32.5979 18.0146 25 23.3687 25 23.3687L14.1604 15.7979H35.7792Z" fill="white"/>
</g>
<defs>
<clipPath id="clip0_1_88">
<rect width="50" height="50" fill="white"/>
</clipPath>
</defs>
</svg>
