<svg width="291" height="219" viewBox="0 0 291 219" fill="none" xmlns="http://www.w3.org/2000/svg">
<path fill-rule="evenodd" clip-rule="evenodd" d="M291 30.75C291 14.1815 277.569 0.75 261 0.75H248.25C231.681 0.75 218.25 14.1815 218.25 30.75V43.5C218.25 60.0685 204.819 73.5 188.25 73.5H145.5H102.75C86.1815 73.5 72.75 86.9315 72.75 103.5V146.25H30C13.4315 146.25 0 159.681 0 176.25V218.99C0 218.996 0.00448085 219 0.0100037 219H72.74C72.7455 219 72.75 218.996 72.75 218.99V146.25H145.5V146.25C146.312 146.25 146.97 146.908 146.97 147.72V218.99C146.97 218.996 146.974 219 146.98 219H218.25H219.72H290.99C290.996 219 291 218.996 291 218.99V146.25V73.5V30.75Z" fill="white"/>
</svg>
