<svg width="195" height="141" viewBox="0 0 195 141" fill="none" xmlns="http://www.w3.org/2000/svg">
<path d="M191.883 136.959H3.08252V3.09644H191.883V136.959ZM3.42657 136.615H191.539V3.44049H3.42657V136.615Z" fill="white"/>
<path d="M6.33042 0.192627H0.165039V6.35799H6.33042V0.192627Z" fill="white"/>
<path d="M6.50943 6.52319H0V0H6.50943V6.52319ZM0.344049 6.17914H6.16538V0.357804H0.344049V6.17914Z" fill="white"/>
<path d="M100.559 0.192627H94.3936V6.35799H100.559V0.192627Z" fill="white"/>
<path d="M100.738 6.52319H94.2285V0H100.738V6.52319ZM94.5726 6.17914H100.463V0.357804H94.6414L94.5726 6.17914Z" fill="white"/>
<path d="M194.787 0.192627H188.622V6.35799H194.787V0.192627Z" fill="white"/>
<path d="M194.966 6.52319H188.443V0H194.966V6.52319ZM188.787 6.17914H194.622V0.357804H188.787V6.17914Z" fill="white"/>
<path d="M6.33042 66.952H0.165039V73.1174H6.33042V66.952Z" fill="white"/>
<path d="M6.50943 73.2825H0V66.7731H6.50943V73.2825ZM0.344049 72.9384H6.16538V67.1171H0.344049V72.9384Z" fill="white"/>
<path d="M194.787 66.952H188.622V73.1174H194.787V66.952Z" fill="white"/>
<path d="M194.966 73.2825H188.443V66.7731H194.966V73.2825ZM188.787 72.9384H194.622V67.1171H188.787V72.9384Z" fill="white"/>
<path d="M6.33042 133.711H0.165039V139.877H6.33042V133.711Z" fill="white"/>
<path d="M6.50943 140.042H0V133.491H6.50943V140.042ZM0.344049 139.698H6.16538V133.877H0.344049V139.698Z" fill="white"/>
<path d="M100.559 133.711H94.3936V139.877H100.559V133.711Z" fill="white"/>
<path d="M100.738 140.042H94.2285V133.491H100.738V140.042ZM94.5726 139.698H100.463V133.877H94.6414L94.5726 139.698Z" fill="white"/>
<path d="M194.787 133.711H188.622V139.877H194.787V133.711Z" fill="white"/>
<path d="M194.966 140.042H188.443V133.491H194.966V140.042ZM188.787 139.698H194.622V133.877H188.787V139.698Z" fill="white"/>
</svg>
